<svg width="18" height="18" viewBox="0 0 18 18" fill="none" xmlns="http://www.w3.org/2000/svg">
<path d="M17.041 8.88526C17.0468 13.4847 13.3116 17.2257 8.70061 17.2315C4.08961 17.2315 0.354407 13.5079 0.354407 8.89106C0.348607 4.28006 4.08961 0.544862 8.69481 0.539062C13.3 0.539062 17.0352 4.27426 17.041 8.88526ZM8.69481 15.9439C12.5866 15.9497 15.7534 12.7829 15.7592 8.88526C15.7592 4.99346 12.6098 1.83246 8.70641 1.82666C4.80881 1.82086 1.64781 4.97026 1.64201 8.87946C1.62461 12.7713 4.79721 15.9439 8.69481 15.9439Z" fill="#9798A5"/>
<path d="M12.0878 7.24961C11.7108 7.44101 11.3338 7.63821 10.951 7.82961C10.6146 7.15101 10.1042 6.66381 9.37921 6.43181C8.85721 6.26361 8.32941 6.27521 7.80741 6.44921C6.75761 6.79141 6.03261 7.77741 6.06741 8.98381C6.09641 10.0742 6.84461 11.0486 7.88861 11.3444C8.50341 11.5184 9.10081 11.4894 9.68661 11.2168C10.2666 10.95 10.6784 10.515 10.9568 9.93501C11.3396 10.1322 11.7166 10.3236 12.0936 10.515C11.502 11.8258 9.99981 12.922 8.16121 12.7016C6.25301 12.4696 4.85521 10.9152 4.79141 9.02441C4.72181 7.06401 6.05581 5.46901 7.85961 5.10941C9.80261 4.72661 11.4324 5.83441 12.0878 7.24961Z" fill="#9798A5"/>
</svg>
