<svg width="23" height="16" viewBox="0 0 23 16" fill="none" xmlns="http://www.w3.org/2000/svg">
<path d="M22.5363 12.6397C22.4764 12.6176 22.4182 12.5912 22.362 12.5609C19.9446 11.034 17.5279 9.50614 15.1119 7.97714C15.0628 7.94625 15.0159 7.91205 14.9409 7.8613L22.5363 2.86279V12.6397Z" fill="#F6F6F6"/>
<path d="M11.2722 0C14.5226 0 17.7733 0 21.0243 0C21.7089 0 22.2307 0.35743 22.4326 0.952596C22.4877 1.11201 22.4772 1.2157 22.309 1.32657C19.0476 3.46601 15.7892 5.61059 12.5337 7.76032C12.1542 8.01019 11.772 8.25675 11.3969 8.51379C11.2954 8.58329 11.2276 8.57998 11.1261 8.51379C7.4727 6.10261 3.81694 3.69381 0.158798 1.28741C0.0517896 1.21736 0.0374482 1.15448 0.0677857 1.03754C0.140593 0.762507 0.295948 0.516396 0.51292 0.332365C0.729892 0.148333 0.998056 0.0352234 1.28128 0.00827393C1.38333 -0.000551506 1.48648 0.000551708 1.58907 0.000551708L11.2722 0Z" fill="#F6F6F6"/>
<path d="M11.2553 15.5026H1.5004C0.814222 15.5026 0.292418 15.1451 0.091639 14.5494C0.0408927 14.3994 0.0408926 14.3001 0.208576 14.1947C3.04596 12.4091 5.87874 10.6177 8.70693 8.82059C8.83876 8.73675 8.92756 8.74116 9.05387 8.82666C9.59995 9.19733 10.162 9.54373 10.7026 9.92377C11.0837 10.1913 11.429 10.1996 11.8129 9.92984C12.3645 9.54373 12.9387 9.18575 13.4991 8.80956C13.5395 8.77495 13.5907 8.75561 13.6438 8.7549C13.6969 8.7542 13.7486 8.77218 13.7898 8.8057C16.639 10.6127 19.4901 12.4171 22.3433 14.219C22.4702 14.2984 22.484 14.374 22.4476 14.502C22.3684 14.7712 22.2099 15.0103 21.9927 15.188C21.7755 15.3657 21.5098 15.4738 21.2302 15.4981C21.1282 15.5064 21.025 15.5053 20.9224 15.5053L11.2553 15.5026Z" fill="#F6F6F6"/>
<path d="M0 2.86719L7.58823 7.8668L0 12.6656V2.86719Z" fill="#F6F6F6"/>
</svg>
