<svg width="15" height="12" viewBox="0 0 37 29" fill="none" xmlns="http://www.w3.org/2000/svg">
<path d="M36.0703 3.9696L32.8473 0.677666C32.4053 0.225945 31.8679 0 31.2361 0C30.6037 0 30.0662 0.225945 29.6243 0.677666L14.0774 16.5809L7.10974 9.4401C6.66731 8.98821 6.13016 8.76252 5.49838 8.76252C4.86619 8.76252 4.32905 8.98821 3.88661 9.4401L0.663568 12.7321C0.221134 13.1839 0 13.7327 0 14.3783C0 15.0235 0.221134 15.5728 0.663568 16.0245L9.24255 24.7867L12.4658 28.0786C12.908 28.5307 13.4453 28.7563 14.0774 28.7563C14.7091 28.7563 15.2465 28.5301 15.6889 28.0786L18.9121 24.7867L36.0703 7.26179C36.5123 6.8099 36.7339 6.26119 36.7339 5.61557C36.7342 4.97029 36.5123 4.42149 36.0703 3.9696Z" fill="#D5D0DA"/>
</svg>
